<svg xmlns="http://www.w3.org/2000/svg" width="40" height="42" fill="none"><g fill="#fff" fill-rule="evenodd" clip-rule="evenodd" filter="url(#a)"><path d="M19.134 1.37a1.617 1.617 0 0 1 1.703-.018l.622.377.012.007a49.707 49.707 0 0 0 6.666 3.446l.017.008a48.649 48.649 0 0 0 7.243 2.519l.84.208a1.593 1.593 0 0 1 1.215 1.543v9.245c0 8.038-4.16 13.557-8.234 17.006a30.594 30.594 0 0 1-5.605 3.749 26 26 0 0 1-1.892.893 14.514 14.514 0 0 1-.773.298 2.851 2.851 0 0 1-.095.03l-.325.112a1.618 1.618 0 0 1-1.056 0l-.385-.133a19.241 19.241 0 0 1-.817-.329 30.967 30.967 0 0 1-7.482-4.644c-4.075-3.443-8.24-8.948-8.24-16.982V9.46c0-.73.501-1.366 1.215-1.543l.841-.208A48.65 48.65 0 0 0 11.859 5.2l.015-.007a49.706 49.706 0 0 0 6.658-3.441l.602-.382Zm.88 3.213a52.93 52.93 0 0 1-6.868 3.531 51.866 51.866 0 0 1-7.388 2.582v8.01c0 6.809 3.493 11.502 7.112 14.56 3.18 2.687 6.377 4.038 7.143 4.34l.011-.005c.096-.035.246-.094.445-.177.395-.166.966-.424 1.654-.782a27.39 27.39 0 0 0 5.01-3.35c3.617-3.063 7.11-7.77 7.11-14.587v-8.01a51.86 51.86 0 0 1-7.38-2.593 52.93 52.93 0 0 1-6.848-3.519Z"/><path d="M14.919 14.812c0-.976.791-1.767 1.767-1.767h3.535c1.22 0 2.209.989 2.209 2.209V26.74a1.767 1.767 0 0 1-3.535 0V16.579h-2.209a1.767 1.767 0 0 1-1.767-1.767Z"/></g><defs><filter id="a" width="35.225" height="40.084" x="2.388" y=".958" color-interpolation-filters="sRGB" filterUnits="userSpaceOnUse"><feFlood flood-opacity="0" result="BackgroundImageFix"/><feBlend in="SourceGraphic" in2="BackgroundImageFix" result="shape"/><feGaussianBlur result="effect1_foregroundBlur_106_2420" stdDeviation=".08"/></filter></defs></svg>