<svg xmlns="http://www.w3.org/2000/svg" width="40" height="40" fill="none"><path fill="#fff" fill-rule="evenodd" d="M7.408 6.525h25.184c.488 0 .883.395.883.883v25.184a.884.884 0 0 1-.883.883H7.408a.884.884 0 0 1-.883-.883V7.408c0-.488.395-.883.883-.883m-4.418.883A4.418 4.418 0 0 1 7.408 2.99h25.184a4.418 4.418 0 0 1 4.418 4.418v25.184a4.418 4.418 0 0 1-4.418 4.418H7.408a4.418 4.418 0 0 1-4.418-4.418zm21.415 7.974.004-.004a1.715 1.715 0 0 1 2.404.067l.002.003.002.002a1.696 1.696 0 0 1-.066 2.399h-.001L19.4 24.832l-.004.004a1.711 1.711 0 0 1-2.376-.05l-.003-.003-3.386-3.476a1.696 1.696 0 0 1 2.432-2.364l2.211 2.274z" clip-rule="evenodd"/></svg>