<svg xmlns="http://www.w3.org/2000/svg" width="138" height="120" fill="none" style="margin-top:-14px;margin-left:-7px;padding-bottom:10px"><path fill="#7D02CC" fill-rule="evenodd" d="M69.6 57.335a1.665 1.665 0 0 1 1.52 1.055l11.43 29A1.665 1.665 0 0 1 81 89.665H57a1.665 1.665 0 0 1-1.528-2.327l12.572-29a1.665 1.665 0 0 1 1.556-1.003m-10.063 29h19.017l-9.056-22.98z" clip-rule="evenodd"/><path fill="#7D02CC" fill-rule="evenodd" d="M74 72.165H64v-3.33h10zM78 80.665H61v-3.33h17zM86.5 89.665H52v-3.33h34.5z" clip-rule="evenodd"/><path stroke="#CDB2FB" stroke-width="2" d="M88.056 98.5h-37.33c-6.014 0-9.878-6.387-7.085-11.714l19.105-36.448c3.028-5.776 11.324-5.697 14.241.136l18.224 36.448c2.66 5.32-1.208 11.578-7.155 11.578Z"/><path stroke="#CDB2FB" stroke-opacity=".4" stroke-width="2" d="M92.26 109H46.355c-12.237 0-19.944-13.178-13.946-23.843l23.494-41.773c6.187-11 22.079-10.841 28.045.28l22.41 41.772c5.718 10.66-2.004 23.564-14.1 23.564Z"/><path stroke="#CDB2FB" stroke-opacity=".2" stroke-width="2" d="M96.834 119h-54.68C23.55 119 12.02 98.749 21.515 82.75L49.501 35.6c9.41-15.855 32.44-15.618 41.524.426l26.694 47.151c9.058 16-2.5 35.824-20.885 35.824Z"/></svg>