<svg xmlns="http://www.w3.org/2000/svg" width="151" height="42" fill="none"><g clip-path="url(#a)"><path fill="#2E054E" d="M54.987 29.193h6.07c1.712 0 3.62-.245 4.918-1.542.636-.637 1.321-1.762 1.321-3.5 0-1.052-.293-1.86-1.052-2.594a4.05 4.05 0 0 0-1.86-.979 3.33 3.33 0 0 0 1.713-1.248c.49-.66.759-1.492.759-2.545 0-1.272-.465-2.227-1.052-2.79-1.028-1.003-2.497-1.125-3.598-1.125h-5.212zm5.408-13.387h.784c.538 0 1.199.025 1.664.392.22.196.513.563.513 1.224 0 .538-.195 1.125-.562 1.468-.563.538-1.444.612-2.08.612h-.759zm-.783 6.485h1.469c.342 0 1.468.025 2.006.563.367.367.44.881.44 1.224 0 .905-.366 1.37-.587 1.566-.587.539-1.737.612-2.447.612h-1.37zM78.156 18.278l-.686 5.727c-.146 1.297-.562 1.81-.71 1.957-.39.416-1.052.612-1.614.612-.514 0-1.126-.171-1.444-.465-.245-.22-.465-.612-.465-1.199 0-.27.049-.514.122-1.199l.636-5.433h-3.524l-.66 5.555a14 14 0 0 0-.123 1.542c0 1.15.44 2.251 1.175 2.936 1.224 1.175 3.157 1.249 4.258 1.249 1.248 0 2.986-.147 4.283-1.395 1.223-1.175 1.443-2.692 1.59-3.99l.686-5.897zM82.74 34.797h3.964L97.25 18.278h-4.136l-3.67 5.971-2.423-5.97h-4.014l4.234 9.519zM103.247 11.353h-3.524l-2.227 17.84h3.524l.098-1.346c.122.17.587.782 1.321 1.199.759.416 1.615.514 2.301.514 1.541 0 2.863-.343 4.038-1.542 1.15-1.175 1.786-2.937 1.786-4.943 0-1.2-.269-2.79-1.566-3.99-.906-.831-1.982-1.174-3.304-1.174-.734 0-1.444.122-2.129.465a4.3 4.3 0 0 0-1.346 1.126zm1.199 9.593c.808 0 1.371.293 1.738.66.489.465.758 1.126.758 1.836 0 .783-.343 1.713-.93 2.276-.538.538-1.346.807-2.006.807-.71 0-1.371-.293-1.787-.685-.269-.245-.71-.832-.71-1.884 0-.955.392-1.738.906-2.252.391-.391 1.052-.759 2.031-.759M121.614 19.6a3.94 3.94 0 0 0-1.493-1.273c-.709-.343-1.493-.416-2.129-.416-1.517 0-2.887.44-4.013 1.59-1.052 1.077-1.762 2.693-1.762 4.7 0 1.884.661 3.156 1.468 4.013.955 1.003 2.031 1.346 3.377 1.346.416 0 1.273-.05 2.031-.392.588-.27 1.151-.759 1.542-1.223l-.269 1.248h3.524l1.346-10.915h-3.524zm-2.863 1.345c.954 0 1.517.319 1.835.612.465.416.759 1.102.759 1.885 0 .807-.294 1.737-.93 2.349-.367.343-1.003.734-2.007.734-.709 0-1.346-.196-1.86-.734-.342-.367-.709-.954-.709-1.86 0-.905.342-1.689.832-2.178.538-.538 1.199-.808 2.08-.808M136.264 18.62c-1.052-.513-2.08-.709-3.181-.709-2.153 0-3.597.783-4.527 1.737-1.101 1.126-1.713 2.692-1.713 4.454 0 1.689.587 2.986 1.468 3.94 1.126 1.2 2.349 1.518 3.793 1.518.783 0 1.738-.074 2.888-.637l.391-3.23c-.513.465-1.272.881-2.227.881-.734 0-1.37-.22-1.908-.734-.441-.416-.783-1.052-.783-1.933 0-.735.269-1.591.807-2.178.245-.245.906-.832 2.129-.832 1.297 0 2.154.66 2.447.93zM139.609 11.353l-2.227 17.84h3.524l.636-4.797 4.013 4.796h4.528l-4.944-5.897 5.36-5.017H145.8l-4.013 4.013 1.346-10.938z"/><path fill="#ED264F" fill-rule="evenodd" d="M23.159 3.947a3.053 3.053 0 0 0-4.318 0L3.947 18.841a3.053 3.053 0 0 0 0 4.318l14.894 14.894a3.053 3.053 0 0 0 4.318 0l5.72-5.72a.916.916 0 0 0 0-1.295L17.642 19.8v3.947h-3.053v-7.022c0-1.18.957-2.137 2.137-2.137h7.022v3.053H19.8l11.237 11.237a3.97 3.97 0 0 1 0 5.613l-5.72 5.72a6.106 6.106 0 0 1-8.635 0L1.788 25.317a6.106 6.106 0 0 1 0-8.634L16.683 1.788a6.106 6.106 0 0 1 8.635 0l14.894 14.895a6.106 6.106 0 0 1 0 8.635l-4.395 4.394-2.158-2.159 4.394-4.394a3.053 3.053 0 0 0 0-4.318z" clip-rule="evenodd"/></g><defs><clipPath id="a"><path fill="#fff" d="M0 0h150.661v42H0z"/></clipPath></defs></svg>