<svg xmlns="http://www.w3.org/2000/svg" width="126" height="126" fill="none"><rect width="87.096" height="87.096" x="63" y="1.414" stroke="#CDB2FB" stroke-opacity=".2" stroke-width="2" rx="20.187" transform="rotate(45 63 1.41421)"/><rect width="68.752" height="68.752" x="63" y="14.384" stroke="#CDB2FB" stroke-opacity=".4" stroke-width="2" rx="18.232" transform="rotate(45 63 14.3844)"/><rect width="47.788" height="47.788" x="63" y="29.208" stroke="#CDB2FB" stroke-width="2" rx="10.083" transform="rotate(45 63 29.2083)"/><path stroke="#7D02CC" stroke-width="3" d="m75.857 70.143 4.112-4.112a4.286 4.286 0 0 0 0-6.062L66.032 46.031a4.286 4.286 0 0 0-6.062 0L46.031 59.969a4.286 4.286 0 0 0 0 6.062l13.938 13.938a4.286 4.286 0 0 0 6.062 0l5.353-5.353a2.286 2.286 0 0 0 0-3.232L59.857 59.857"/><path stroke="#7D02CC" stroke-width="3" d="M66.143 59.286H59.57a.57.57 0 0 0-.571.571v6.572"/></svg>