<svg xmlns="http://www.w3.org/2000/svg" width="122" height="122" fill="none"><path stroke="#CDB2FB" stroke-width="2" d="M54.62 34.368c3.499-3.583 9.261-3.583 12.76 0a10.917 10.917 0 0 0 7.94 3.29c5.008-.06 9.083 4.014 9.023 9.021a10.916 10.916 0 0 0 3.289 7.941c3.583 3.499 3.583 9.261 0 12.76a10.917 10.917 0 0 0-3.29 7.94c.06 5.008-4.014 9.083-9.022 9.023a10.917 10.917 0 0 0-7.94 3.289c-3.499 3.583-9.261 3.583-12.76 0a10.916 10.916 0 0 0-7.94-3.29c-5.008.06-9.083-4.014-9.023-9.022a10.917 10.917 0 0 0-3.29-7.94c-3.582-3.499-3.582-9.261 0-12.76a10.917 10.917 0 0 0 3.29-7.94c-.06-5.008 4.015-9.083 9.022-9.023a10.917 10.917 0 0 0 7.941-3.29Z"/><path stroke="#CDB2FB" stroke-opacity=".4" stroke-width="2" d="M51.82 23.58c5.034-5.156 13.326-5.156 18.36 0a14.831 14.831 0 0 0 10.789 4.468c7.205-.086 13.069 5.778 12.983 12.983A14.832 14.832 0 0 0 98.42 51.82c5.155 5.035 5.155 13.327 0 18.361a14.832 14.832 0 0 0-4.47 10.789c.087 7.205-5.777 13.069-12.982 12.983A14.832 14.832 0 0 0 70.18 98.42c-5.035 5.155-13.327 5.155-18.361 0a14.832 14.832 0 0 0-10.789-4.47c-7.205.087-13.069-5.777-12.983-12.982A14.831 14.831 0 0 0 23.58 70.18c-5.156-5.035-5.156-13.327 0-18.361a14.831 14.831 0 0 0 4.468-10.789c-.086-7.205 5.778-13.069 12.983-12.983A14.831 14.831 0 0 0 51.82 23.58Z"/><path stroke="#CDB2FB" stroke-opacity=".2" stroke-width="2" d="M49.205 13.51c6.468-6.624 17.122-6.624 23.59 0a18.485 18.485 0 0 0 13.445 5.57c9.258-.11 16.791 7.422 16.68 16.68a18.486 18.486 0 0 0 5.57 13.445c6.624 6.468 6.624 17.122 0 23.59a18.486 18.486 0 0 0-5.57 13.445c.111 9.258-7.422 16.791-16.68 16.68a18.486 18.486 0 0 0-13.445 5.57c-6.468 6.624-17.122 6.624-23.59 0a18.486 18.486 0 0 0-13.445-5.57c-9.258.111-16.79-7.422-16.68-16.68a18.485 18.485 0 0 0-5.57-13.445c-6.624-6.468-6.624-17.122 0-23.59a18.485 18.485 0 0 0 5.57-13.445c-.11-9.258 7.422-16.79 16.68-16.68a18.485 18.485 0 0 0 13.445-5.57Z"/><path fill="#7D02CC" fill-rule="evenodd" d="M57.084 42.41a6.406 6.406 0 0 1 7.832 0l2.155 1.665c.466.36 1.02.59 1.604.665l2.7.346a6.406 6.406 0 0 1 5.539 5.539l.346 2.7c.075.584.305 1.138.665 1.604l1.664 2.154a6.406 6.406 0 0 1 0 7.834l-1.664 2.154c-.36.466-.59 1.02-.665 1.604l-.346 2.7a6.406 6.406 0 0 1-5.539 5.539l-2.7.346a3.314 3.314 0 0 0-1.604.665l-2.154 1.664a6.406 6.406 0 0 1-7.834 0l-2.154-1.664a3.314 3.314 0 0 0-1.604-.665l-2.7-.346a6.406 6.406 0 0 1-5.539-5.539l-.346-2.7a3.314 3.314 0 0 0-.665-1.604l-1.664-2.154a6.406 6.406 0 0 1 0-7.834l1.664-2.154c.36-.466.59-1.02.665-1.604l.346-2.7a6.406 6.406 0 0 1 5.539-5.539l2.7-.346a3.314 3.314 0 0 0 1.604-.665l2.154-1.664Zm5.942 2.448a3.314 3.314 0 0 0-4.052 0l-2.154 1.665a6.406 6.406 0 0 1-3.101 1.284l-2.7.347a3.313 3.313 0 0 0-2.865 2.864l-.347 2.7a6.406 6.406 0 0 1-1.284 3.102l-1.665 2.154a3.314 3.314 0 0 0 0 4.052l1.665 2.154a6.406 6.406 0 0 1 1.284 3.101l.347 2.7a3.313 3.313 0 0 0 2.864 2.865l2.7.347c1.13.145 2.2.588 3.102 1.284l2.154 1.665a3.314 3.314 0 0 0 4.052 0l2.154-1.665a6.406 6.406 0 0 1 3.101-1.284l2.7-.347a3.313 3.313 0 0 0 2.865-2.865l.347-2.7c.145-1.13.588-2.2 1.284-3.1l1.665-2.155a3.314 3.314 0 0 0 0-4.052l-1.665-2.154a6.406 6.406 0 0 1-1.284-3.101l-.347-2.7a3.313 3.313 0 0 0-2.865-2.865l-2.7-.347a6.406 6.406 0 0 1-3.1-1.284l-2.155-1.665Z" clip-rule="evenodd"/><path fill="#7D02CC" stroke="#7D02CC" stroke-linejoin="round" stroke-width=".3" d="M54.242 55.022c0 .083.067.15.15.15h5.586c1.338 0 2.488.813 2.979 1.97h-8.565a.15.15 0 0 0-.15.15v2.195c0 .083.067.15.15.15h8.565a3.237 3.237 0 0 1-2.979 1.97h-5.586a.15.15 0 0 0-.15.15v2.406c0 .04.016.078.044.106l6.81 6.778a.15.15 0 0 0 .21 0l1.56-1.553a.15.15 0 0 0 0-.213l-5.204-5.178h2.316a5.741 5.741 0 0 0 5.599-4.466h2.033a.15.15 0 0 0 .15-.15v-2.195a.15.15 0 0 0-.15-.15h-2.033a5.678 5.678 0 0 0-.86-1.97h2.893a.15.15 0 0 0 .15-.15v-2.196a.15.15 0 0 0-.15-.15H54.39a.15.15 0 0 0-.15.15v2.196Z"/></svg>