<svg xmlns="http://www.w3.org/2000/svg" width="40" height="40" fill="none"><path fill="#fff" fill-rule="evenodd" d="M16.084 1.41a6.406 6.406 0 0 1 7.832 0l2.155 1.665c.466.36 1.02.59 1.604.665l2.7.346a6.406 6.406 0 0 1 5.539 5.539l.346 2.7c.075.584.305 1.138.665 1.604l1.664 2.155a6.406 6.406 0 0 1 0 7.832l-1.664 2.155c-.36.466-.59 1.02-.665 1.604l-.346 2.7a6.406 6.406 0 0 1-5.539 5.539l-2.7.346a3.314 3.314 0 0 0-1.604.665l-2.155 1.664a6.406 6.406 0 0 1-7.832 0l-2.155-1.664a3.313 3.313 0 0 0-1.604-.665l-2.7-.346a6.406 6.406 0 0 1-5.539-5.539l-.346-2.7a3.314 3.314 0 0 0-.665-1.604l-1.664-2.155a6.406 6.406 0 0 1 0-7.832l1.664-2.155c.36-.466.59-1.02.665-1.604l.346-2.7a6.406 6.406 0 0 1 5.539-5.539l2.7-.346a3.313 3.313 0 0 0 1.604-.665l2.155-1.664Zm5.942 2.448a3.314 3.314 0 0 0-4.052 0L15.82 5.523a6.407 6.407 0 0 1-3.101 1.284l-2.7.347a3.314 3.314 0 0 0-2.865 2.864l-.347 2.7a6.407 6.407 0 0 1-1.284 3.102l-1.665 2.154a3.314 3.314 0 0 0 0 4.052l1.665 2.154a6.407 6.407 0 0 1 1.284 3.101l.347 2.7a3.314 3.314 0 0 0 2.864 2.865l2.7.347c1.13.145 2.2.588 3.102 1.284l2.154 1.665a3.314 3.314 0 0 0 4.052 0l2.154-1.665a6.406 6.406 0 0 1 3.101-1.284l2.7-.347a3.314 3.314 0 0 0 2.865-2.865l.347-2.7c.145-1.13.588-2.2 1.284-3.1l1.665-2.155a3.314 3.314 0 0 0 0-4.052l-1.665-2.154a6.406 6.406 0 0 1-1.284-3.101l-.347-2.7a3.314 3.314 0 0 0-2.865-2.865l-2.7-.347a6.407 6.407 0 0 1-3.1-1.284l-2.155-1.665Z" clip-rule="evenodd"/><path fill="#fff" stroke="#fff" stroke-linejoin="round" stroke-width=".3" d="M13.241 14.022c0 .083.067.15.15.15h5.587c1.338 0 2.488.813 2.978 1.97h-8.565a.15.15 0 0 0-.15.15v2.195c0 .083.067.15.15.15h8.565a3.237 3.237 0 0 1-2.978 1.97h-5.587a.15.15 0 0 0-.15.15v2.406c0 .04.016.078.044.106l6.81 6.778a.15.15 0 0 0 .211 0l1.56-1.553a.15.15 0 0 0 0-.212l-5.204-5.18h2.316a5.741 5.741 0 0 0 5.599-4.465h2.032a.15.15 0 0 0 .15-.15v-2.195a.15.15 0 0 0-.15-.15h-2.033a5.68 5.68 0 0 0-.86-1.97h2.893a.15.15 0 0 0 .15-.15v-2.196a.15.15 0 0 0-.15-.15H13.392a.15.15 0 0 0-.15.15v2.196Z"/></svg>