<svg width="70" height="70" viewBox="0 0 70 70" fill="none" xmlns="http://www.w3.org/2000/svg">
<circle cx="34.8525" cy="34.8521" r="33.9062" fill="white"/>
<path fill-rule="evenodd" clip-rule="evenodd" d="M66.3773 41.0814C63.5362 55.8212 50.5669 66.9589 34.9995 66.9589C19.4321 66.9589 6.46272 55.8212 3.62109 41.0814H16.1557C17.4428 45.0663 19.96 48.5406 23.3457 51.005C26.7314 53.4693 30.8112 54.7969 34.9988 54.7969C39.1864 54.7969 43.2662 53.4693 46.6519 51.005C50.0376 48.5406 52.5549 45.0663 53.842 41.0814H66.3773ZM34.9993 3.04199C50.5666 3.04199 63.536 14.1797 66.3771 28.9194H53.8425C52.5554 24.9345 50.0381 21.4603 46.6524 18.9959C43.2668 16.5315 39.1869 15.204 34.9993 15.204C30.8117 15.204 26.7319 16.5315 23.3462 18.9959C19.9606 21.4603 17.4433 24.9345 16.1562 28.9194H3.62109C6.46272 14.1799 19.432 3.04199 34.9993 3.04199Z" fill="#C9E9FA"/>
<path d="M23.6928 41.6129V46.2656H24.7515C25.0393 46.2757 25.3274 46.2532 25.6102 46.1986C25.8223 46.1505 26.0191 46.0503 26.1828 45.9072C26.3641 45.7175 26.4922 45.4835 26.5543 45.2287C26.6623 44.8084 26.7106 44.3749 26.6978 43.9412C26.7126 43.5196 26.6643 43.0981 26.5543 42.6909C26.4786 42.4342 26.3404 42.2004 26.152 42.0103C25.9677 41.8413 25.74 41.7268 25.4944 41.6797C25.109 41.6216 24.7191 41.5991 24.3296 41.6125L23.6928 41.6129ZM33.0919 44.6709L32.1234 42.0631L31.1747 44.6709H33.0919ZM35.7044 47.4502H34.1602L33.5465 45.8536H30.7376L30.1586 47.4502H28.6531L31.3905 40.4238H32.8907L35.7044 47.4502ZM37.3994 47.4502V44.4923L34.8261 40.4236H36.4899L38.1441 43.2034L39.7637 40.4236H41.3983L38.8147 44.5023V47.4501L37.3994 47.4502ZM41.7432 45.1652L43.125 45.0289C43.1682 45.4186 43.347 45.7806 43.6302 46.0516C43.9219 46.2811 44.2871 46.3968 44.6578 46.3771C45.114 46.3771 45.4596 46.2808 45.6898 46.0861C45.7959 46.0074 45.8826 45.9054 45.943 45.7879C46.0034 45.6704 46.036 45.5406 46.0382 45.4085C46.0424 45.2541 45.9901 45.1035 45.8911 44.985C45.7508 44.8399 45.5744 44.7349 45.38 44.6807C45.2151 44.6217 44.8357 44.5203 44.2448 44.3734C43.4841 44.1849 42.9508 43.9531 42.6449 43.6779C42.3026 43.386 42.0787 42.9791 42.0154 42.5337C41.9522 42.0884 42.0539 41.6352 42.3014 41.2596C42.5157 40.9398 42.8213 40.692 43.1784 40.5482C43.618 40.375 44.0879 40.2917 44.5602 40.3033C45.444 40.3033 46.1066 40.4966 46.5531 40.8826C46.774 41.0758 46.9509 41.314 47.072 41.5813C47.1931 41.8485 47.2556 42.1386 47.2552 42.432L45.8367 42.4943C45.808 42.195 45.6685 41.9173 45.4456 41.7156C45.1811 41.5384 44.8649 41.4548 44.5474 41.478C44.2058 41.458 43.8666 41.5469 43.5787 41.732C43.5077 41.7798 43.4499 41.8447 43.4105 41.9207C43.3711 41.9967 43.3514 42.0814 43.3533 42.167C43.3534 42.2496 43.3725 42.331 43.409 42.405C43.4455 42.479 43.4986 42.5437 43.5641 42.594C43.7425 42.7444 44.1771 42.901 44.868 43.0638C45.3964 43.1722 45.9103 43.3418 46.3994 43.5691C46.7183 43.7328 46.9867 43.9799 47.1762 44.2841C47.3724 44.6237 47.4694 45.0116 47.456 45.4036C47.4568 45.8049 47.3403 46.1978 47.1209 46.5339C46.8944 46.888 46.5624 47.1622 46.1718 47.3177C45.6837 47.503 45.1638 47.5903 44.6419 47.5744C43.7538 47.5744 43.0716 47.3694 42.5954 46.9594C42.1192 46.5494 41.8351 45.9516 41.7432 45.1659V45.1652ZM22.2744 40.4238H24.8675C25.317 40.4089 25.7664 40.454 26.204 40.558C26.6088 40.6741 26.9746 40.8978 27.2626 41.2052C27.5666 41.5309 27.7961 41.9188 27.9351 42.3421C28.1001 42.8801 28.1773 43.4412 28.1637 44.0038C28.1742 44.5107 28.1014 45.0159 27.9482 45.4993C27.8 45.9667 27.5421 46.3919 27.1961 46.7394C26.9125 47.0016 26.5714 47.1937 26.2001 47.3003C25.7911 47.4122 25.3676 47.4623 24.9438 47.449H22.2751L22.2744 40.4238Z" fill="#2e054e"/>
<path fill-rule="evenodd" clip-rule="evenodd" d="M60.63 31.2163L61.8234 33.756L64.6078 34.1059L62.5613 36.0257L63.0889 38.7816L60.6305 37.4283L58.1723 38.7816L58.6998 36.0257L56.6533 34.1059L59.4379 33.756L60.63 31.2163Z" fill="#F17D01"/>
<path fill-rule="evenodd" clip-rule="evenodd" d="M9.371 31.2163L10.5641 33.756L13.3485 34.1059L11.302 36.0257L11.8297 38.7816L9.37152 37.4283L6.91312 38.7816L7.44101 36.0257L5.39453 34.1059L8.17897 33.756L9.371 31.2163Z" fill="#F17D01"/>
<path fill-rule="evenodd" clip-rule="evenodd" d="M35 2.02706C53.207 2.02706 67.9724 16.7925 67.9724 34.9995C67.9724 53.2065 53.207 67.9721 35 67.9721C16.793 67.9721 2.02759 53.2066 2.02759 34.9995C2.02759 16.7923 16.793 2.02706 35 2.02706ZM35 0C54.3264 0 70 15.6722 70 35C70 54.3278 54.3268 70 35 70C15.6732 70 0 54.3278 0 35C0 15.6722 15.6736 0 35 0Z" fill="#C9E9FA"/>
<path d="M40.8218 24.124V25.8473L34.5625 40.3115H31.1827L37.442 26.6255H29.3816V24.124H40.8218Z" fill="#2e054e"/>
<circle cx="35.0021" cy="35.0011" r="20.1515" fill="white"/>
<path d="M39.1885 29.5012H37.0138C37.3329 30.0002 37.541 30.5788 37.6381 31.2372H39.7296L39.1781 33.2954H37.6277C37.4682 34.328 37.0554 35.1492 36.3895 35.759C35.7235 36.3689 34.7662 36.7951 33.5176 37.0376L38.0648 42.4222V42.5678H34.6206L29.5844 36.6738L29.5739 34.8443H32.04C33.3234 34.8443 34.128 34.328 34.4541 33.2954H29.3242L29.8653 31.2372H34.3917C34.0517 30.3987 33.306 29.9725 32.1545 29.9586H29.3242L29.9381 27.4326H39.7296L39.1885 29.5012Z" fill="#2e054e"/>
<path d="M24.2076 62.3014L22.9959 61.8398L23.2991 61.0674L24.5029 61.5261C24.8536 61.6597 25.1763 61.6949 25.471 61.6317C25.7683 61.5695 26.0312 61.4183 26.2595 61.1781C26.4904 60.9389 26.6811 60.6219 26.8315 60.2271L26.9487 59.9193C27.0655 59.6128 27.1339 59.328 27.1538 59.065C27.1763 58.8029 27.1507 58.5656 27.077 58.3531C27.0059 58.1416 26.8887 57.9572 26.7256 57.7999C26.5651 57.6435 26.3588 57.5174 26.1069 57.4214L24.8368 56.9375L25.1336 56.1583L26.4037 56.6422C26.7804 56.7856 27.1003 56.9804 27.3635 57.2264C27.6276 57.4698 27.8277 57.7528 27.9636 58.0752C28.1021 58.3986 28.1696 58.7485 28.166 59.1249C28.1624 59.5013 28.0829 59.8934 27.9276 60.3011L27.8133 60.6011C27.6579 61.0089 27.4564 61.3545 27.2086 61.6378C26.9609 61.9212 26.6777 62.1375 26.3591 62.2868C26.0415 62.4335 25.7 62.5101 25.3346 62.5166C24.9728 62.5216 24.5972 62.4498 24.2076 62.3014ZM25.6986 56.3735L23.5374 62.0461L22.5595 61.6735L24.7207 56.001L25.6986 56.3735Z" fill="#2e054e"/>
<path d="M35.0818 63.3523L34.9957 64.1774L31.7903 63.8429L31.8765 63.0177L35.0818 63.3523ZM32.7149 57.8361L32.0848 63.8736L31.0439 63.765L31.6741 57.7275L32.7149 57.8361ZM34.9439 60.6174L34.8591 61.4301L32.0725 61.1393L32.1574 60.3265L34.9439 60.6174ZM35.6051 58.1378L35.5186 58.9671L32.334 58.6347L32.4205 57.8054L35.6051 58.1378Z" fill="#2e054e"/>
<path d="M40.3727 58.2738L39.4699 63.7654L38.3891 63.9498L39.6202 57.5817L40.3107 57.4639L40.3727 58.2738ZM42.7537 63.2051L40.0768 58.3243L39.8627 57.5403L40.5573 57.4218L43.8386 63.0199L42.7537 63.2051ZM42.2887 61.0005L42.4282 61.8184L39.1733 62.3737L39.0337 61.5559L42.2887 61.0005Z" fill="#2e054e"/>
<path d="M50.2868 59.1945L50.6514 59.9398L47.9138 61.2791L47.5492 60.5338L50.2868 59.1945ZM45.5083 55.6981L48.176 61.1508L47.236 61.6107L44.5683 56.158L45.5083 55.6981Z" fill="#2e054e"/>
<path d="M21.4308 12.3037L22.8337 14.1491C22.834 14.2919 22.8024 14.4731 22.7388 14.6925C22.6757 14.9081 22.5541 15.1454 22.374 15.4045C22.1939 15.6636 21.9258 15.9286 21.5695 16.1994C21.2664 16.4298 20.95 16.59 20.6204 16.68C20.2891 16.7678 19.9559 16.7819 19.6209 16.7224C19.288 16.6611 18.9634 16.5257 18.6468 16.3159C18.3286 16.104 18.0298 15.8143 17.7506 15.447L17.4958 15.1118C17.2182 14.7467 17.0163 14.387 16.89 14.0326C16.7643 13.6743 16.712 13.33 16.7332 12.9996C16.7544 12.6693 16.848 12.3607 17.0141 12.0739C17.1806 11.7832 17.4188 11.5201 17.7285 11.2846C18.1246 10.9835 18.5026 10.8009 18.8624 10.7369C19.2227 10.669 19.562 10.6973 19.8802 10.822C20.1984 10.9467 20.4899 11.1441 20.7546 11.4142L19.9381 12.0349C19.7837 11.8869 19.6174 11.776 19.439 11.7021C19.2628 11.6265 19.0754 11.6049 18.8766 11.6374C18.6783 11.6659 18.4674 11.7651 18.2439 11.935C18.0514 12.0813 17.9099 12.2465 17.8194 12.4306C17.7289 12.6146 17.6887 12.8144 17.699 13.03C17.7115 13.244 17.7708 13.4712 17.8769 13.7118C17.983 13.9524 18.1353 14.2032 18.3337 14.4643L18.5936 14.8062C18.7955 15.0717 19.0023 15.2863 19.214 15.45C19.428 15.6121 19.6419 15.7235 19.8558 15.7844C20.0718 15.8436 20.2851 15.8508 20.4955 15.8061C20.7042 15.7592 20.9059 15.6617 21.1006 15.5137C21.2909 15.369 21.4351 15.2349 21.5333 15.1114C21.6297 14.9857 21.6965 14.8738 21.7337 14.7758C21.7714 14.6738 21.7942 14.5866 21.8021 14.5143L21.0729 13.5551L20.0672 14.3196L19.5954 13.699L21.4308 12.3037Z" fill="#2e054e"/>
<path d="M23.8925 7.97559L25.9217 7.27389C26.3578 7.1231 26.7522 7.06024 27.1049 7.0853C27.4577 7.11037 27.76 7.22346 28.0119 7.42457C28.2655 7.62214 28.4573 7.90875 28.5871 8.28438C28.6862 8.57071 28.7208 8.84105 28.6911 9.09541C28.6615 9.34977 28.5766 9.58497 28.4366 9.80101C28.2958 10.0144 28.1067 10.2077 27.8696 10.3809L27.6205 10.6302L25.7962 11.2611L25.5172 10.4797L26.8845 10.0069C27.1209 9.92515 27.3033 9.815 27.4319 9.67644C27.5604 9.53788 27.6391 9.38273 27.668 9.21101C27.6985 9.03575 27.682 8.85618 27.6184 8.6723C27.5494 8.47266 27.45 8.31292 27.3204 8.19306C27.1924 8.06968 27.0347 7.99629 26.8472 7.97289C26.6588 7.94687 26.4412 7.97655 26.1942 8.06194L25.154 8.42164L26.8654 13.3706L25.8764 13.7126L23.8925 7.97559ZM29.1507 12.5803L26.912 10.4694L27.947 10.1071L30.189 12.1639L30.2067 12.2152L29.1507 12.5803Z" fill="#2e054e"/>
<path d="M36.976 11.1283V11.958L33.7532 11.958V11.1283H36.976ZM34.0492 5.8877V11.958H33.0028V5.8877H34.0492ZM36.5549 8.42255V9.23971H33.7532V8.42255H36.5549ZM36.9552 5.8877V6.72153L33.7532 6.72153V5.8877L36.9552 5.8877Z" fill="#2e054e"/>
<path d="M45.0756 8.5643L41.6421 12.9442L40.6058 12.5858L44.7489 7.59551L45.4109 7.82441L45.0756 8.5643ZM44.7904 14.0328L44.7919 8.46619L44.9814 7.6759L45.6473 7.90617L45.8306 14.3925L44.7904 14.0328ZM45.4434 11.8765L45.1722 12.6606L42.0516 11.5815L42.3227 10.7974L45.4434 11.8765Z" fill="#2e054e"/>
<path d="M53.4951 12.5133L49.8214 17.3457L48.995 16.7175L52.6686 11.885L53.4951 12.5133ZM55.0119 13.6663L54.5072 14.3301L50.6605 11.4058L51.1651 10.742L55.0119 13.6663Z" fill="#2e054e"/>
</svg>
