<svg width="70" height="70" viewBox="0 0 70 70" fill="none" xmlns="http://www.w3.org/2000/svg">
<circle cx="34.8525" cy="34.8521" r="33.9062" fill="white"/>
<path fill-rule="evenodd" clip-rule="evenodd" d="M66.3773 41.0814C63.5362 55.8211 50.5669 66.9589 34.9995 66.9589C19.4321 66.9589 6.46272 55.8211 3.62109 41.0814H16.1557C17.4428 45.0663 19.96 48.5406 23.3457 51.005C26.7314 53.4693 30.8112 54.7969 34.9988 54.7969C39.1864 54.7969 43.2662 53.4693 46.6519 51.005C50.0376 48.5406 52.5549 45.0663 53.842 41.0814H66.3773ZM34.9993 3.04199C50.5666 3.04199 63.536 14.1797 66.3771 28.9194H53.8425C52.5554 24.9345 50.0381 21.4603 46.6524 18.9959C43.2668 16.5315 39.187 15.204 34.9993 15.204C30.8117 15.204 26.7319 16.5315 23.3463 18.9959C19.9606 21.4603 17.4433 24.9345 16.1562 28.9194H3.62109C6.46272 14.1799 19.432 3.04199 34.9993 3.04199Z" fill="#C9E9FA"/>
<path d="M23.6928 41.6129V46.2656H24.7515C25.0393 46.2757 25.3274 46.2532 25.6102 46.1986C25.8223 46.1505 26.0191 46.0503 26.1828 45.9072C26.3641 45.7175 26.4922 45.4835 26.5543 45.2287C26.6623 44.8084 26.7106 44.3749 26.6978 43.9412C26.7126 43.5196 26.6643 43.0981 26.5543 42.6909C26.4786 42.4342 26.3404 42.2004 26.152 42.0103C25.9677 41.8413 25.74 41.7268 25.4944 41.6797C25.109 41.6216 24.7191 41.5991 24.3296 41.6125L23.6928 41.6129ZM33.0919 44.6709L32.1234 42.0631L31.1747 44.6709H33.0919ZM35.7044 47.4502H34.1602L33.5465 45.8536H30.7376L30.1586 47.4502H28.6531L31.3905 40.4238H32.8907L35.7044 47.4502ZM37.3994 47.4502V44.4923L34.8261 40.4236H36.4899L38.1441 43.2034L39.7637 40.4236H41.3983L38.8147 44.5023V47.4501L37.3994 47.4502ZM41.7432 45.1652L43.125 45.0289C43.1682 45.4186 43.347 45.7806 43.6302 46.0516C43.9219 46.2811 44.2871 46.3968 44.6578 46.3771C45.114 46.3771 45.4596 46.2808 45.6898 46.0861C45.7959 46.0074 45.8826 45.9054 45.943 45.7879C46.0034 45.6704 46.036 45.5406 46.0382 45.4085C46.0424 45.2541 45.9901 45.1035 45.8911 44.985C45.7508 44.8399 45.5744 44.7349 45.38 44.6807C45.2151 44.6217 44.8357 44.5203 44.2448 44.3734C43.4841 44.1849 42.9508 43.9531 42.6449 43.6779C42.3026 43.386 42.0787 42.9791 42.0154 42.5337C41.9522 42.0884 42.0539 41.6352 42.3014 41.2596C42.5157 40.9398 42.8213 40.692 43.1784 40.5482C43.618 40.375 44.0879 40.2917 44.5602 40.3033C45.444 40.3033 46.1066 40.4966 46.5531 40.8826C46.774 41.0758 46.9509 41.314 47.072 41.5813C47.1931 41.8485 47.2556 42.1386 47.2552 42.432L45.8367 42.4943C45.808 42.195 45.6685 41.9173 45.4456 41.7156C45.1811 41.5384 44.8649 41.4548 44.5474 41.478C44.2058 41.458 43.8666 41.5469 43.5787 41.732C43.5077 41.7798 43.4499 41.8447 43.4105 41.9207C43.3711 41.9967 43.3514 42.0814 43.3533 42.167C43.3534 42.2496 43.3725 42.331 43.409 42.405C43.4455 42.479 43.4986 42.5437 43.5641 42.594C43.7425 42.7444 44.1771 42.901 44.868 43.0638C45.3964 43.1722 45.9103 43.3418 46.3994 43.5691C46.7183 43.7328 46.9867 43.9799 47.1762 44.2841C47.3724 44.6237 47.4694 45.0116 47.456 45.4036C47.4568 45.8049 47.3403 46.1978 47.1209 46.5339C46.8944 46.888 46.5624 47.1622 46.1718 47.3177C45.6837 47.503 45.1638 47.5903 44.6419 47.5744C43.7538 47.5744 43.0716 47.3694 42.5954 46.9594C42.1192 46.5494 41.8351 45.9516 41.7432 45.1659V45.1652ZM22.2744 40.4238H24.8675C25.317 40.4089 25.7664 40.454 26.204 40.558C26.6088 40.6741 26.9746 40.8978 27.2626 41.2052C27.5666 41.5309 27.7961 41.9188 27.9351 42.3421C28.1001 42.8801 28.1773 43.4412 28.1637 44.0038C28.1742 44.5107 28.1014 45.0159 27.9482 45.4993C27.8 45.9667 27.5421 46.3919 27.1961 46.7394C26.9125 47.0016 26.5714 47.1937 26.2001 47.3003C25.7911 47.4122 25.3676 47.4623 24.9438 47.449H22.2751L22.2744 40.4238Z" fill="#2e054e"/>
<path fill-rule="evenodd" clip-rule="evenodd" d="M60.63 31.2163L61.8234 33.756L64.6078 34.1059L62.5613 36.0257L63.0889 38.7816L60.6305 37.4283L58.1723 38.7816L58.6998 36.0257L56.6533 34.1059L59.4379 33.756L60.63 31.2163Z" fill="#F17D01"/>
<path fill-rule="evenodd" clip-rule="evenodd" d="M9.371 31.2163L10.5641 33.756L13.3485 34.1059L11.302 36.0257L11.8297 38.7816L9.37152 37.4283L6.91312 38.7816L7.44101 36.0257L5.39453 34.1059L8.17897 33.756L9.371 31.2163Z" fill="#F17D01"/>
<path fill-rule="evenodd" clip-rule="evenodd" d="M35 2.02706C53.207 2.02706 67.9724 16.7925 67.9724 34.9995C67.9724 53.2065 53.207 67.9721 35 67.9721C16.793 67.9721 2.02759 53.2066 2.02759 34.9995C2.02759 16.7923 16.793 2.02706 35 2.02706ZM35 0C54.3264 0 70 15.6722 70 35C70 54.3278 54.3268 70 35 70C15.6732 70 0 54.3278 0 35C0 15.6722 15.6736 0 35 0Z" fill="#C9E9FA"/>
<path d="M40.8218 24.124V25.8473L34.5625 40.3115H31.1827L37.442 26.6255H29.3816V24.124H40.8218Z" fill="#2e054e"/>
<circle cx="35.0021" cy="35.0011" r="20.1515" fill="white"/>
<path d="M27.3213 35.5651L32.2238 40.3419L42.8459 29.9922" stroke="#2e054e" stroke-width="4" stroke-linecap="round" stroke-linejoin="round"/>
<path d="M18.4449 14.7215L19.0624 15.2758L16.9096 17.674L16.2922 17.1198L18.4449 14.7215ZM14.5785 15.2342L19.0958 19.2891L18.3968 20.0679L13.8794 16.0129L14.5785 15.2342ZM17.0961 12.4295L21.6134 16.4844L20.9172 17.26L16.3998 13.2051L17.0961 12.4295Z" fill="#2e054e"/>
<path d="M22.9853 9.72924L24.1484 15.1716L23.2093 15.7377L22.0322 9.3594L22.632 8.9978L22.9853 9.72924ZM27.0013 13.4519L22.7282 9.88421L22.2428 9.23241L22.8463 8.86866L27.944 12.8837L27.0013 13.4519ZM25.7641 11.569L26.1924 12.2795L23.3645 13.9842L22.9361 13.2736L25.7641 11.569Z" fill="#2e054e"/>
<path d="M31.9942 10.9011C31.9672 10.779 31.9241 10.6746 31.8651 10.5881C31.8088 10.5009 31.7258 10.4282 31.6161 10.3699C31.5064 10.3117 31.3593 10.2646 31.1748 10.2285C30.9925 10.1892 30.7637 10.1588 30.4884 10.1372C30.187 10.1129 29.9051 10.0742 29.6429 10.0213C29.3828 9.96503 29.1489 9.88588 28.9412 9.78384C28.733 9.67908 28.5596 9.54526 28.421 9.38237C28.2818 9.21676 28.1852 9.01185 28.1311 8.76762C28.0776 8.5261 28.0791 8.29517 28.1357 8.07483C28.1949 7.85389 28.3022 7.65077 28.4576 7.46548C28.6151 7.27686 28.814 7.11466 29.0544 6.97886C29.2942 6.84035 29.5701 6.73653 29.8822 6.6674C30.3218 6.57003 30.7184 6.56759 31.0719 6.66009C31.4282 6.75198 31.7222 6.91603 31.9539 7.15225C32.1882 7.38786 32.3421 7.6712 32.4154 8.00227L31.4019 8.22677C31.3586 8.03139 31.2784 7.86838 31.1612 7.73776C31.0461 7.60383 30.8948 7.51208 30.7074 7.46251C30.5226 7.41234 30.3027 7.4155 30.0476 7.472C29.8061 7.5255 29.6134 7.60661 29.4695 7.71534C29.3256 7.82408 29.2281 7.94957 29.1771 8.09183C29.126 8.23409 29.118 8.38392 29.1528 8.54131C29.1775 8.65257 29.2258 8.74863 29.2978 8.82947C29.3692 8.9076 29.4665 8.97429 29.5898 9.02955C29.7124 9.08209 29.8613 9.12455 30.0365 9.15693C30.2116 9.18931 30.4146 9.21266 30.6455 9.22699C30.9955 9.25195 31.3059 9.29709 31.5765 9.36239C31.8466 9.42498 32.0796 9.51287 32.2755 9.62606C32.4714 9.73925 32.631 9.8818 32.7545 10.0537C32.8774 10.2229 32.9653 10.4269 33.0182 10.6658C33.0735 10.9154 33.0732 11.1518 33.0173 11.3748C32.9607 11.5952 32.8545 11.7966 32.6985 11.9792C32.5446 12.1585 32.3458 12.315 32.1021 12.4486C31.8606 12.579 31.581 12.6794 31.2635 12.7497C30.9786 12.8128 30.6893 12.837 30.3957 12.8223C30.1048 12.8071 29.8296 12.747 29.5701 12.6422C29.31 12.5347 29.0876 12.379 28.9029 12.1751C28.7177 11.9685 28.5902 11.7078 28.5205 11.393L29.5422 11.1667C29.5848 11.3593 29.6538 11.5163 29.749 11.6376C29.8468 11.7582 29.9651 11.8487 30.1037 11.9091C30.2418 11.9668 30.394 11.9986 30.5604 12.0044C30.7295 12.0096 30.905 11.9921 31.0868 11.9519C31.3256 11.899 31.5176 11.8209 31.6627 11.7176C31.8104 11.6137 31.9115 11.4916 31.9659 11.3515C32.0202 11.2113 32.0297 11.0612 31.9942 10.9011Z" fill="#2e054e"/>
<path d="M38.4823 11.3062C38.4917 11.1815 38.4808 11.0692 38.4493 10.9692C38.4207 10.8695 38.3623 10.7758 38.2741 10.6883C38.186 10.6008 38.0589 10.5131 37.8927 10.4252C37.7296 10.3348 37.5194 10.2394 37.2622 10.139C36.9807 10.0284 36.7221 9.90985 36.4864 9.78324C36.2537 9.65407 36.0528 9.51059 35.8836 9.3528C35.7146 9.19223 35.5873 9.01393 35.5019 8.81789C35.4166 8.61908 35.3835 8.39496 35.4024 8.14553C35.4211 7.89887 35.4895 7.67828 35.6074 7.48374C35.728 7.28942 35.8896 7.12608 36.092 6.99371C36.2973 6.85879 36.5347 6.76113 36.8041 6.70075C37.0737 6.6376 37.3679 6.61812 37.6866 6.64232C38.1356 6.67642 38.5159 6.78892 38.8275 6.97983C39.1419 7.17095 39.3758 7.4131 39.5291 7.70627C39.6853 7.99966 39.7505 8.31541 39.7248 8.65353L38.6897 8.57493C38.7048 8.37538 38.6752 8.19613 38.6009 8.03718C38.5295 7.87566 38.4113 7.74404 38.2462 7.6423C38.0839 7.54078 37.8724 7.48013 37.6119 7.46035C37.3653 7.44162 37.1573 7.46346 36.9881 7.52587C36.8189 7.58829 36.6893 7.68018 36.5993 7.80157C36.5092 7.92295 36.4581 8.06402 36.4459 8.22476C36.4372 8.33839 36.4557 8.44432 36.5012 8.54255C36.5469 8.63801 36.6207 8.73003 36.7227 8.81861C36.8249 8.90442 36.9552 8.98817 37.1134 9.06987C37.2717 9.15158 37.4592 9.23272 37.6761 9.3133C38.0039 9.43853 38.2878 9.57159 38.528 9.71248C38.7684 9.85059 38.966 10.0022 39.1207 10.1672C39.2754 10.3323 39.3869 10.515 39.4554 10.7153C39.524 10.9128 39.549 11.1336 39.5305 11.3774C39.5112 11.6324 39.4424 11.8586 39.3243 12.0559C39.2064 12.2504 39.0463 12.4125 38.8442 12.5421C38.645 12.6691 38.4094 12.7613 38.1375 12.8187C37.8685 12.8735 37.5719 12.8886 37.2476 12.864C36.9566 12.8419 36.6727 12.7813 36.3959 12.6823C36.1219 12.5834 35.8758 12.4463 35.6578 12.2708C35.44 12.0926 35.2722 11.8792 35.1545 11.6305C35.037 11.3791 34.9905 11.0926 35.0149 10.7712L36.0583 10.8504C36.0434 11.0472 36.0639 11.2174 36.1199 11.361C36.1787 11.5048 36.2657 11.6257 36.3809 11.7237C36.4963 11.8188 36.6328 11.8933 36.7904 11.9471C36.9508 12.0011 37.1238 12.0351 37.3095 12.0492C37.5534 12.0677 37.7597 12.0486 37.9285 11.9917C38.1 11.935 38.2321 11.8475 38.3247 11.7291C38.4173 11.6107 38.4699 11.4697 38.4823 11.3062Z" fill="#2e054e"/>
<path d="M45.406 14.0943L45.0725 14.8541L42.2819 13.6291L42.6153 12.8694L45.406 14.0943ZM44.9889 8.188L42.5491 13.7464L41.5909 13.3258L44.0306 7.76741L44.9889 8.188Z" fill="#2e054e"/>
<path d="M51.0157 18.4072L50.439 19.0037L48.122 16.7637L48.6986 16.1672L51.0157 18.4072ZM52.554 12.6051L48.3348 16.9694L47.5824 16.2421L51.8016 11.8778L52.554 12.6051ZM52.5936 16.1691L52.0256 16.7566L50.0113 14.8093L50.5793 14.2218L52.5936 16.1691ZM54.6432 14.6249L54.0637 15.2244L51.7616 12.9989L52.3412 12.3994L54.6432 14.6249Z" fill="#2e054e"/>
<path d="M24.7809 56.4013L22.0207 61.8078L21.0886 61.332L23.8489 55.9255L24.7809 56.4013ZM25.779 59.8927L25.4017 60.6317L22.9584 59.3843L23.3356 58.6453L25.779 59.8927ZM27.2947 57.6848L26.9156 58.4274L24.1641 57.0227L24.5432 56.28L27.2947 57.6848Z" fill="#2e054e"/>
<path d="M29.4724 57.8774L31.6084 58.0956C32.0674 58.1425 32.4516 58.2516 32.761 58.4229C33.0704 58.5942 33.297 58.8241 33.4407 59.1126C33.5875 59.3986 33.6407 59.7393 33.6004 60.1347C33.5696 60.4361 33.4872 60.6959 33.3531 60.9141C33.2191 61.1323 33.0431 61.3099 32.8251 61.4469C32.6074 61.5811 32.3546 61.6768 32.0666 61.734L31.7357 61.8552L29.8154 61.6591L29.8914 60.8329L31.3306 60.9799C31.5794 61.0053 31.7913 60.9822 31.9663 60.9107C32.1412 60.8392 32.2779 60.7316 32.3764 60.588C32.478 60.4419 32.5386 60.2721 32.5584 60.0785C32.5798 59.8684 32.557 59.6817 32.4899 59.5183C32.4258 59.3525 32.3136 59.2196 32.1534 59.1194C31.9935 59.0164 31.7836 58.9517 31.5237 58.9251L30.4287 58.8133L29.8966 64.0227L28.8556 63.9163L29.4724 57.8774ZM32.3022 64.2684L31.1608 61.411L32.2521 61.5182L33.4193 64.328L33.4138 64.3819L32.3022 64.2684Z" fill="#2e054e"/>
<path d="M40.2122 63.1396L40.2718 63.9671L37.0574 64.1988L36.9977 63.3713L40.2122 63.1396ZM36.9161 58.1229L37.3526 64.1775L36.3089 64.2528L35.8724 58.1982L36.9161 58.1229ZM39.5976 60.471L39.6564 61.2861L36.8619 61.4876L36.8032 60.6725L39.5976 60.471ZM39.8145 57.914L39.8745 58.7456L36.6808 58.9759L36.6209 58.1442L39.8145 57.914Z" fill="#2e054e"/>
<path d="M47.467 61.2212L47.7004 62.0173L44.6078 62.924L44.3744 62.1279L47.467 61.2212ZM43.1841 57.0156L44.8919 62.8407L43.8877 63.1351L42.1799 57.31L43.1841 57.0156ZM46.3017 58.7431L46.5316 59.5273L43.8431 60.3155L43.6132 59.5313L46.3017 58.7431ZM45.9727 56.1981L46.2072 56.9982L43.1346 57.899L42.9001 57.0989L45.9727 56.1981Z" fill="#2e054e"/>
</svg>
