<svg width="70" height="70" viewBox="0 0 70 70" fill="none" xmlns="http://www.w3.org/2000/svg">
<circle cx="34.8525" cy="34.8521" r="33.9062" fill="white"/>
<path fill-rule="evenodd" clip-rule="evenodd" d="M66.3773 41.0814C63.5362 55.8211 50.5669 66.9589 34.9995 66.9589C19.4321 66.9589 6.46272 55.8211 3.62109 41.0814H16.1557C17.4428 45.0663 19.96 48.5406 23.3457 51.005C26.7314 53.4693 30.8112 54.7969 34.9988 54.7969C39.1864 54.7969 43.2662 53.4693 46.6519 51.005C50.0376 48.5406 52.5549 45.0663 53.842 41.0814H66.3773ZM34.9993 3.04199C50.5666 3.04199 63.536 14.1797 66.3771 28.9194H53.8425C52.5554 24.9345 50.0381 21.4603 46.6524 18.9959C43.2668 16.5315 39.187 15.204 34.9993 15.204C30.8117 15.204 26.7319 16.5315 23.3463 18.9959C19.9606 21.4603 17.4433 24.9345 16.1562 28.9194H3.62109C6.46272 14.1799 19.432 3.04199 34.9993 3.04199Z" fill="#C9E9FA"/>
<path d="M23.6928 41.6129V46.2656H24.7515C25.0393 46.2757 25.3274 46.2532 25.6102 46.1986C25.8223 46.1505 26.0191 46.0503 26.1828 45.9072C26.3641 45.7175 26.4922 45.4835 26.5543 45.2287C26.6623 44.8084 26.7106 44.3749 26.6978 43.9412C26.7126 43.5196 26.6643 43.0981 26.5543 42.6909C26.4786 42.4342 26.3404 42.2004 26.152 42.0103C25.9677 41.8413 25.74 41.7268 25.4944 41.6797C25.109 41.6216 24.7191 41.5991 24.3296 41.6125L23.6928 41.6129ZM33.0919 44.6709L32.1234 42.0631L31.1747 44.6709H33.0919ZM35.7044 47.4502H34.1602L33.5465 45.8536H30.7376L30.1586 47.4502H28.6531L31.3905 40.4238H32.8907L35.7044 47.4502ZM37.3994 47.4502V44.4923L34.8261 40.4236H36.4899L38.1441 43.2034L39.7637 40.4236H41.3983L38.8147 44.5023V47.4501L37.3994 47.4502ZM41.7432 45.1652L43.125 45.0289C43.1682 45.4186 43.347 45.7806 43.6302 46.0516C43.9219 46.2811 44.2871 46.3968 44.6578 46.3771C45.114 46.3771 45.4596 46.2808 45.6898 46.0861C45.7959 46.0074 45.8826 45.9054 45.943 45.7879C46.0034 45.6704 46.036 45.5406 46.0382 45.4085C46.0424 45.2541 45.9901 45.1035 45.8911 44.985C45.7508 44.8399 45.5744 44.7349 45.38 44.6807C45.2151 44.6217 44.8357 44.5203 44.2448 44.3734C43.4841 44.1849 42.9508 43.9531 42.6449 43.6779C42.3026 43.386 42.0787 42.9791 42.0154 42.5337C41.9522 42.0884 42.0539 41.6352 42.3014 41.2596C42.5157 40.9398 42.8213 40.692 43.1784 40.5482C43.618 40.375 44.0879 40.2917 44.5602 40.3033C45.444 40.3033 46.1066 40.4966 46.5531 40.8826C46.774 41.0758 46.9509 41.314 47.072 41.5813C47.1931 41.8485 47.2556 42.1386 47.2552 42.432L45.8367 42.4943C45.808 42.195 45.6685 41.9173 45.4456 41.7156C45.1811 41.5384 44.8649 41.4548 44.5474 41.478C44.2058 41.458 43.8666 41.5469 43.5787 41.732C43.5077 41.7798 43.4499 41.8447 43.4105 41.9207C43.3711 41.9967 43.3514 42.0814 43.3533 42.167C43.3534 42.2496 43.3725 42.331 43.409 42.405C43.4455 42.479 43.4986 42.5437 43.5641 42.594C43.7425 42.7444 44.1771 42.901 44.868 43.0638C45.3964 43.1722 45.9103 43.3418 46.3994 43.5691C46.7183 43.7328 46.9867 43.9799 47.1762 44.2841C47.3724 44.6237 47.4694 45.0116 47.456 45.4036C47.4568 45.8049 47.3403 46.1978 47.1209 46.5339C46.8944 46.888 46.5624 47.1622 46.1718 47.3177C45.6837 47.503 45.1638 47.5903 44.6419 47.5744C43.7538 47.5744 43.0716 47.3694 42.5954 46.9594C42.1192 46.5494 41.8351 45.9516 41.7432 45.1659V45.1652ZM22.2744 40.4238H24.8675C25.317 40.4089 25.7664 40.454 26.204 40.558C26.6088 40.6741 26.9746 40.8978 27.2626 41.2052C27.5666 41.5309 27.7961 41.9188 27.9351 42.3421C28.1001 42.8801 28.1773 43.4412 28.1637 44.0038C28.1742 44.5107 28.1014 45.0159 27.9482 45.4993C27.8 45.9667 27.5421 46.3919 27.1961 46.7394C26.9125 47.0016 26.5714 47.1937 26.2001 47.3003C25.7911 47.4122 25.3676 47.4623 24.9438 47.449H22.2751L22.2744 40.4238Z" fill="#2e054e"/>
<path fill-rule="evenodd" clip-rule="evenodd" d="M60.63 31.2163L61.8234 33.756L64.6078 34.1059L62.5613 36.0257L63.0889 38.7816L60.6305 37.4283L58.1723 38.7816L58.6998 36.0257L56.6533 34.1059L59.4379 33.756L60.63 31.2163Z" fill="#F17D01"/>
<path fill-rule="evenodd" clip-rule="evenodd" d="M9.371 31.2163L10.5641 33.756L13.3485 34.1059L11.302 36.0257L11.8297 38.7816L9.37152 37.4283L6.91312 38.7816L7.44101 36.0257L5.39453 34.1059L8.17897 33.756L9.371 31.2163Z" fill="#F17D01"/>
<path fill-rule="evenodd" clip-rule="evenodd" d="M35 2.02706C53.207 2.02706 67.9724 16.7925 67.9724 34.9995C67.9724 53.2065 53.207 67.9721 35 67.9721C16.793 67.9721 2.02759 53.2066 2.02759 34.9995C2.02759 16.7923 16.793 2.02706 35 2.02706ZM35 0C54.3264 0 70 15.6722 70 35C70 54.3278 54.3268 70 35 70C15.6732 70 0 54.3278 0 35C0 15.6722 15.6736 0 35 0Z" fill="#C9E9FA"/>
<path d="M40.8218 24.124V25.8473L34.5625 40.3115H31.1827L37.442 26.6255H29.3816V24.124H40.8218Z" fill="#2e054e"/>
<circle cx="35.0021" cy="35.0011" r="20.1515" fill="white"/>
<path d="M34.4066 45.3776H33.3716L34.4066 37.6632H30.7841C30.1838 37.6632 30.1941 37.3105 30.3908 36.9358C30.5874 36.5611 30.4425 36.8476 30.4632 36.8036C31.7984 34.2909 33.8063 30.5439 36.4766 25.5405H37.5116L36.4766 33.2549H40.0991C40.6062 33.2549 40.6787 33.6186 40.5855 33.817L40.5131 33.9823C36.4352 41.5755 34.4066 45.3776 34.4066 45.3776Z" fill="#2e054e"/>
<path d="M15.8276 13.2085L19.9489 17.6654L19.1806 18.3759L15.0593 13.919L15.8276 13.2085Z" fill="#2e054e"/>
<path d="M23.6019 7.37794L26.8239 12.5226L25.9371 13.078L21.3217 10.8377L23.6298 14.5231L22.7429 15.0785L19.5208 9.93388L20.4077 9.37843L25.0346 11.6214L22.7221 7.92896L23.6019 7.37794Z" fill="#2e054e"/>
<path d="M31.8093 10.1638C31.781 10.042 31.7368 9.93813 31.6769 9.85221C31.6196 9.76565 31.5358 9.69383 31.4255 9.63675C31.3152 9.57967 31.1676 9.53412 30.9828 9.5001C30.8 9.46274 30.5709 9.43474 30.2954 9.4161C29.9937 9.39501 29.7115 9.3594 29.4487 9.30928C29.188 9.25582 28.9533 9.17918 28.7445 9.07937C28.5352 8.97686 28.3603 8.8449 28.22 8.68351C28.0791 8.5194 27.9803 8.31553 27.9236 8.0719C27.8675 7.83097 27.8665 7.60004 27.9207 7.3791C27.9775 7.15754 28.0827 6.95328 28.2361 6.76633C28.3915 6.57604 28.5887 6.41171 28.8276 6.27334C29.0659 6.13226 29.3407 6.02549 29.652 5.95303C30.0905 5.85094 30.4871 5.84425 30.8416 5.93295C31.1989 6.02101 31.4946 6.18191 31.7288 6.41562C31.9657 6.64871 32.1225 6.93038 32.1994 7.26064L31.1883 7.496C31.143 7.30109 31.061 7.13896 30.9424 7.00961C30.8259 6.87691 30.6737 6.78679 30.4857 6.73923C30.3004 6.69104 30.0805 6.69657 29.826 6.7558C29.5851 6.81188 29.3933 6.89506 29.2506 7.00533C29.1079 7.1156 29.0117 7.24213 28.9622 7.38493C28.9127 7.52773 28.9062 7.67764 28.9428 7.83465C28.9686 7.94564 29.018 8.04117 29.0908 8.12123C29.163 8.19859 29.2611 8.26424 29.3849 8.31817C29.5082 8.36939 29.6575 8.41025 29.833 8.44075C30.0084 8.47125 30.2117 8.49242 30.4428 8.50428C30.793 8.52548 31.1038 8.56729 31.3752 8.62968C31.6459 8.68938 31.8798 8.77476 32.0769 8.88584C32.274 8.99692 32.4352 9.13776 32.5605 9.30835C32.6852 9.47623 32.7753 9.67929 32.8307 9.91751C32.8887 10.1666 32.8909 10.4029 32.8374 10.6265C32.7832 10.8475 32.6791 11.0501 32.5251 11.2343C32.3732 11.4152 32.1761 11.5738 31.9338 11.7101C31.6937 11.8431 31.4152 11.9464 31.0985 12.0201C30.8143 12.0863 30.5253 12.1136 30.2315 12.1021C29.9404 12.0899 29.6646 12.0329 29.404 11.9309C29.1428 11.8262 28.9187 11.6728 28.7319 11.4709C28.5444 11.2663 28.4141 11.0069 28.341 10.6929L29.3603 10.4557C29.405 10.6479 29.4756 10.8041 29.5721 10.9243C29.6713 11.0439 29.7905 11.1332 29.9298 11.1921C30.0684 11.2483 30.221 11.2784 30.3874 11.2824C30.5566 11.2859 30.7319 11.2665 30.9133 11.2243C31.1515 11.1688 31.3426 11.0887 31.4865 10.9838C31.6332 10.8783 31.733 10.7552 31.7858 10.6145C31.8387 10.4738 31.8465 10.3235 31.8093 10.1638Z" fill="#2e054e"/>
<path d="M36.9 5.58515L36.7539 11.6537L35.7161 11.6287L35.8622 5.56016L36.9 5.58515ZM38.8048 5.63102L38.7847 6.46461L33.954 6.34829L33.9741 5.5147L38.8048 5.63102Z" fill="#2e054e"/>
<path d="M43.84 7.80288L40.6026 12.3297L39.5515 12.0173L43.4709 6.84941L44.1423 7.04895L43.84 7.80288ZM43.7957 13.2787L43.5522 7.71736L43.7067 6.91949L44.3821 7.12022L44.8508 13.5922L43.7957 13.2787ZM44.3532 11.0957L44.1168 11.891L40.9517 10.9503L41.188 10.155L44.3532 11.0957Z" fill="#2e054e"/>
<path d="M52.8279 11.5685L49.6982 16.7698L48.8016 16.2303L48.7107 11.1007L46.4688 14.8267L45.5722 14.2872L48.7018 9.08583L49.5985 9.62535L49.6921 14.7664L51.9384 11.0333L52.8279 11.5685Z" fill="#2e054e"/>
<path d="M55.9509 14.8283L51.6714 19.1335L50.9351 18.4016L55.2146 14.0965L55.9509 14.8283ZM57.3022 16.1715L56.7143 16.7629L53.2873 13.3564L53.8752 12.765L57.3022 16.1715Z" fill="#2e054e"/>
<path d="M17.4091 56.0726L16.2078 55.0462L16.7467 54.4154L17.948 55.4418C18.1573 55.6206 18.3552 55.7312 18.5419 55.7737C18.7286 55.8162 18.902 55.8036 19.0623 55.7358C19.2265 55.6677 19.3745 55.5565 19.5063 55.4022C19.6309 55.2564 19.7167 55.0939 19.7637 54.9148C19.8147 54.7353 19.8091 54.5514 19.747 54.3631C19.6849 54.1748 19.5492 53.9913 19.34 53.8125L18.3828 52.9947L14.9813 56.976L14.1857 56.2962L18.1288 51.6809L19.8817 53.1786C20.2388 53.4837 20.4879 53.8062 20.6289 54.146C20.7739 54.4855 20.8171 54.8222 20.7585 55.156C20.7018 55.4877 20.5524 55.7952 20.3105 56.0783C20.0559 56.3763 19.772 56.576 19.4586 56.6775C19.1452 56.779 18.8141 56.7794 18.4651 56.6787C18.1182 56.5798 17.7663 56.3777 17.4091 56.0726Z" fill="#2e054e"/>
<path d="M24.7209 56.9654L20.7751 60.8901L19.7907 60.4071L24.5157 55.9638L25.1445 56.2724L24.7209 56.9654ZM23.7657 62.3575L24.4514 56.8332L24.7366 56.0722L25.3691 56.3826L24.7538 62.8423L23.7657 62.3575ZM24.6788 60.2977L24.3133 61.0426L21.3489 59.5881L21.7144 58.8432L24.6788 60.2977Z" fill="#2e054e"/>
<path d="M28.1512 57.5207L28.9045 60.6535L30.9037 58.1266L32.0356 58.3757L29.2159 61.6825L28.7355 63.865L27.7054 63.6382L28.1858 61.4558L27.0152 57.2706L28.1512 57.5207Z" fill="#2e054e"/>
<path d="M33.3875 58.1379L34.3213 58.1272L36.1298 62.7889L37.8273 58.0873L38.7612 58.0766L36.5125 64.173L35.7704 64.1814L33.3875 58.1379ZM32.9622 58.1427L33.8502 58.1326L34.0507 62.183L34.0737 64.2008L33.0315 64.2127L32.9622 58.1427ZM38.2984 58.0819L39.1906 58.0717L39.2598 64.1416L38.2134 64.1536L38.1904 62.1358L38.2984 58.0819Z" fill="#2e054e"/>
<path d="M46.0382 60.9386L46.3962 61.6871L43.4887 63.0774L43.1308 62.329L46.0382 60.9386ZM41.1369 57.4734L43.7558 62.9497L42.8117 63.4012L40.1929 57.9249L41.1369 57.4734ZM44.491 58.6792L44.8436 59.4164L42.316 60.6251L41.9635 59.8879L44.491 58.6792ZM43.7585 56.2197L44.1182 56.972L41.2296 58.3533L40.8699 57.6011L43.7585 56.2197Z" fill="#2e054e"/>
<path d="M50.1226 53.4247L53.0422 58.7468L52.1247 59.2501L47.6464 56.7471L49.7378 60.5595L48.8203 61.0629L45.9007 55.7408L46.8182 55.2375L51.3079 57.7438L49.2124 53.924L50.1226 53.4247Z" fill="#2e054e"/>
<path d="M52.5538 50.7126L57.1753 54.6483L56.5022 55.4387L51.8807 51.5029L52.5538 50.7126ZM53.7891 49.262L54.424 49.8026L51.291 53.4814L50.6562 52.9408L53.7891 49.262Z" fill="#2e054e"/>
</svg>
