<svg xmlns="http://www.w3.org/2000/svg" width="40" height="40" fill="none"><path fill="#fff" fill-rule="evenodd" d="M6.682 7.264c3.4-3.4 7.926-5.275 12.735-5.275 3.472 0 6.845.99 9.752 2.866l.556.36-1.82 2.821-.557-.359a14.596 14.596 0 0 0-7.93-2.33c-3.148 0-6.142.985-8.634 2.81a14.86 14.86 0 0 0-1.728 1.482A14.552 14.552 0 0 0 4.765 20c0 3.915 1.523 7.593 4.291 10.36a14.552 14.552 0 0 0 10.361 4.293c3.915 0 7.593-1.524 10.361-4.292A14.552 14.552 0 0 0 34.07 20c0-2.525-.66-5.008-1.886-7.19l-.29.274-2.989 2.586.567-3.232.036-.21.858-4.894 8.228 1.442-2.83 1.735-.772.446A18.068 18.068 0 0 1 37.428 20c0 4.81-1.874 9.335-5.275 12.736a17.898 17.898 0 0 1-12.736 5.275c-4.81 0-9.335-1.874-12.735-5.275A17.898 17.898 0 0 1 1.406 20c0-4.81 1.875-9.335 5.276-12.736Z" clip-rule="evenodd"/><path stroke="#fff" stroke-linecap="round" stroke-width="3" d="M23.656 12.651h-5.23a1 1 0 0 0-.967.744l-.97 3.667a1 1 0 0 0 .966 1.256h2.451c2.486 0 4.5 2.09 4.5 4.666 0 2.578-2.014 4.667-4.5 4.667-1.741 0-3.252-1.026-4-2.526"/></svg>