<svg xmlns="http://www.w3.org/2000/svg" width="106" height="105" fill="none"><path fill="#7D02CC" fill-rule="evenodd" d="M39.573 39.753a17.897 17.897 0 0 1 12.736-5.275c3.472 0 6.844.99 9.751 2.865l.557.36-1.82 2.822-.557-.36a14.596 14.596 0 0 0-7.931-2.329c-3.148 0-6.142.985-8.633 2.81-.608.444-1.186.939-1.728 1.482a14.552 14.552 0 0 0-4.292 10.36c0 3.916 1.523 7.593 4.292 10.362a14.552 14.552 0 0 0 10.36 4.291c3.916 0 7.593-1.523 10.361-4.291a14.552 14.552 0 0 0 4.292-10.361c0-2.525-.66-5.008-1.886-7.19l-.29.274-2.989 2.586.567-3.232.037-.21.858-4.894 8.227 1.442L68.656 43l-.773.446a18.067 18.067 0 0 1 2.437 9.043c0 4.81-1.875 9.335-5.276 12.735A17.898 17.898 0 0 1 52.31 70.5c-4.81 0-9.335-1.875-12.736-5.276a17.898 17.898 0 0 1-5.275-12.735c0-4.81 1.874-9.335 5.275-12.736Z" clip-rule="evenodd"/><path stroke="#7D02CC" stroke-linecap="round" stroke-width="3" d="M56.548 45.14h-5.23a1 1 0 0 0-.967.744l-.971 3.667a1 1 0 0 0 .967 1.255h2.45c2.486 0 4.5 2.09 4.5 4.667 0 2.578-2.014 4.667-4.5 4.667-1.74 0-3.251-1.026-4-2.527"/><rect width="102.805" height="102.805" x="1.597" y="1.195" stroke="#CDB2FB" stroke-opacity=".2" stroke-width="2" rx="51.403"/><rect width="79.86" height="79.86" x="13.07" y="12.667" stroke="#CDB2FB" stroke-opacity=".4" stroke-width="2" rx="39.93"/><rect width="56.914" height="56.914" x="24.543" y="24.141" stroke="#CDB2FB" stroke-width="2" rx="28.457"/></svg>