<svg xmlns="http://www.w3.org/2000/svg" width="94" height="94" fill="none"><rect width="92" height="92" x="1" y="1" stroke="#CDB2FB" stroke-opacity=".2" stroke-width="2" rx="20.187"/><rect width="74" height="74" x="10" y="10" stroke="#CDB2FB" stroke-opacity=".4" stroke-width="2" rx="18.232"/><rect width="54" height="54" x="20" y="20" stroke="#CDB2FB" stroke-width="2" rx="10.083"/><path fill="#7D02CC" fill-rule="evenodd" d="M34.408 33.525h25.184c.488 0 .883.395.883.883v25.184a.884.884 0 0 1-.883.883H34.408a.884.884 0 0 1-.883-.883V34.408c0-.488.395-.883.883-.883m-4.418.883a4.42 4.42 0 0 1 4.418-4.418h25.184a4.42 4.42 0 0 1 4.418 4.418v25.184a4.42 4.42 0 0 1-4.418 4.418H34.408a4.42 4.42 0 0 1-4.418-4.418zm21.415 7.974.004-.004a1.715 1.715 0 0 1 2.404.067l.002.003.002.002a1.696 1.696 0 0 1-.066 2.398l-.001.002L46.4 51.83l-.004.004a1.71 1.71 0 0 1-2.376-.05l-.003-.003-3.387-3.476a1.697 1.697 0 0 1 2.433-2.364l2.211 2.274z" clip-rule="evenodd"/></svg>