<svg width="70" height="70" viewBox="0 0 70 70" fill="none" xmlns="http://www.w3.org/2000/svg">
<circle cx="34.8525" cy="34.8521" r="33.9062" fill="white"/>
<path fill-rule="evenodd" clip-rule="evenodd" d="M66.3773 41.0814C63.5362 55.8211 50.5669 66.9589 34.9995 66.9589C19.4321 66.9589 6.46272 55.8211 3.62109 41.0814H16.1557C17.4428 45.0663 19.96 48.5406 23.3457 51.005C26.7314 53.4693 30.8112 54.7969 34.9988 54.7969C39.1864 54.7969 43.2662 53.4693 46.6519 51.005C50.0376 48.5406 52.5549 45.0663 53.842 41.0814H66.3773ZM34.9993 3.04199C50.5666 3.04199 63.536 14.1797 66.3771 28.9194H53.8425C52.5554 24.9345 50.0381 21.4603 46.6524 18.9959C43.2668 16.5315 39.187 15.204 34.9993 15.204C30.8117 15.204 26.7319 16.5315 23.3463 18.9959C19.9606 21.4603 17.4433 24.9345 16.1562 28.9194H3.62109C6.46272 14.1799 19.432 3.04199 34.9993 3.04199Z" fill="#C9E9FA"/>
<path d="M23.6928 41.6129V46.2656H24.7515C25.0393 46.2757 25.3274 46.2532 25.6102 46.1986C25.8223 46.1505 26.0191 46.0503 26.1828 45.9072C26.3641 45.7175 26.4922 45.4835 26.5543 45.2287C26.6623 44.8084 26.7106 44.3749 26.6978 43.9412C26.7126 43.5196 26.6643 43.0981 26.5543 42.6909C26.4786 42.4342 26.3404 42.2004 26.152 42.0103C25.9677 41.8413 25.74 41.7268 25.4944 41.6797C25.109 41.6216 24.7191 41.5991 24.3296 41.6125L23.6928 41.6129ZM33.0919 44.6709L32.1234 42.0631L31.1747 44.6709H33.0919ZM35.7044 47.4502H34.1602L33.5465 45.8536H30.7376L30.1586 47.4502H28.6531L31.3905 40.4238H32.8907L35.7044 47.4502ZM37.3994 47.4502V44.4923L34.8261 40.4236H36.4899L38.1441 43.2034L39.7637 40.4236H41.3983L38.8147 44.5023V47.4501L37.3994 47.4502ZM41.7432 45.1652L43.125 45.0289C43.1682 45.4186 43.347 45.7806 43.6302 46.0516C43.9219 46.2811 44.2871 46.3968 44.6578 46.3771C45.114 46.3771 45.4596 46.2808 45.6898 46.0861C45.7959 46.0074 45.8826 45.9054 45.943 45.7879C46.0034 45.6704 46.036 45.5406 46.0382 45.4085C46.0424 45.2541 45.9901 45.1035 45.8911 44.985C45.7508 44.8399 45.5744 44.7349 45.38 44.6807C45.2151 44.6217 44.8357 44.5203 44.2448 44.3734C43.4841 44.1849 42.9508 43.9531 42.6449 43.6779C42.3026 43.386 42.0787 42.9791 42.0154 42.5337C41.9522 42.0884 42.0539 41.6352 42.3014 41.2596C42.5157 40.9398 42.8213 40.692 43.1784 40.5482C43.618 40.375 44.0879 40.2917 44.5602 40.3033C45.444 40.3033 46.1066 40.4966 46.5531 40.8826C46.774 41.0758 46.9509 41.314 47.072 41.5813C47.1931 41.8485 47.2556 42.1386 47.2552 42.432L45.8367 42.4943C45.808 42.195 45.6685 41.9173 45.4456 41.7156C45.1811 41.5384 44.8649 41.4548 44.5474 41.478C44.2058 41.458 43.8666 41.5469 43.5787 41.732C43.5077 41.7798 43.4499 41.8447 43.4105 41.9207C43.3711 41.9967 43.3514 42.0814 43.3533 42.167C43.3534 42.2496 43.3725 42.331 43.409 42.405C43.4455 42.479 43.4986 42.5437 43.5641 42.594C43.7425 42.7444 44.1771 42.901 44.868 43.0638C45.3964 43.1722 45.9103 43.3418 46.3994 43.5691C46.7183 43.7328 46.9867 43.9799 47.1762 44.2841C47.3724 44.6237 47.4694 45.0116 47.456 45.4036C47.4568 45.8049 47.3403 46.1978 47.1209 46.5339C46.8944 46.888 46.5624 47.1622 46.1718 47.3177C45.6837 47.503 45.1638 47.5903 44.6419 47.5744C43.7538 47.5744 43.0716 47.3694 42.5954 46.9594C42.1192 46.5494 41.8351 45.9516 41.7432 45.1659V45.1652ZM22.2744 40.4238H24.8675C25.317 40.4089 25.7664 40.454 26.204 40.558C26.6088 40.6741 26.9746 40.8978 27.2626 41.2052C27.5666 41.5309 27.7961 41.9188 27.9351 42.3421C28.1001 42.8801 28.1773 43.4412 28.1637 44.0038C28.1742 44.5107 28.1014 45.0159 27.9482 45.4993C27.8 45.9667 27.5421 46.3919 27.1961 46.7394C26.9125 47.0016 26.5714 47.1937 26.2001 47.3003C25.7911 47.4122 25.3676 47.4623 24.9438 47.449H22.2751L22.2744 40.4238Z" fill="#2e054e"/>
<path fill-rule="evenodd" clip-rule="evenodd" d="M60.63 31.2163L61.8234 33.756L64.6078 34.1059L62.5613 36.0257L63.0889 38.7816L60.6305 37.4283L58.1723 38.7816L58.6998 36.0257L56.6533 34.1059L59.4379 33.756L60.63 31.2163Z" fill="#F17D01"/>
<path fill-rule="evenodd" clip-rule="evenodd" d="M9.371 31.2163L10.5641 33.756L13.3485 34.1059L11.302 36.0257L11.8297 38.7816L9.37152 37.4283L6.91312 38.7816L7.44101 36.0257L5.39453 34.1059L8.17897 33.756L9.371 31.2163Z" fill="#F17D01"/>
<path fill-rule="evenodd" clip-rule="evenodd" d="M35 2.02706C53.207 2.02706 67.9724 16.7925 67.9724 34.9995C67.9724 53.2065 53.207 67.9721 35 67.9721C16.793 67.9721 2.02759 53.2066 2.02759 34.9995C2.02759 16.7923 16.793 2.02706 35 2.02706ZM35 0C54.3264 0 70 15.6722 70 35C70 54.3278 54.3268 70 35 70C15.6732 70 0 54.3278 0 35C0 15.6722 15.6736 0 35 0Z" fill="#C9E9FA"/>
<path d="M40.8218 24.124V25.8473L34.5625 40.3115H31.1827L37.442 26.6255H29.3816V24.124H40.8218Z" fill="#2e054e"/>
<circle cx="35.0021" cy="35.0011" r="20.1515" fill="white"/>
<path fill-rule="evenodd" clip-rule="evenodd" d="M32.9053 42.0786V39.7785C32.9053 39.1935 33.3739 38.7181 33.9544 38.7142H36.081C36.6643 38.7142 37.1372 39.1907 37.1372 39.7785V42.0857C37.1371 42.5824 37.5305 42.9884 38.0233 43H39.441C40.8543 43 42 41.8455 42 40.4214V33.8784C41.9925 33.3181 41.7314 32.792 41.2911 32.4498L36.4425 28.514C35.5931 27.8287 34.3856 27.8287 33.5362 28.514L28.7089 32.4569C28.2669 32.7978 28.0054 33.3247 28 33.8855V40.4214C28 41.8455 29.1457 43 30.559 43H31.9767C32.4817 43 32.8911 42.5875 32.8911 42.0786" fill="#2e054e"/>
<path d="M26.2752 12.6468C26.2163 12.5365 26.1469 12.4475 26.0668 12.38C25.9891 12.3111 25.8896 12.2633 25.7683 12.2367C25.647 12.21 25.4927 12.2041 25.3053 12.2189C25.1191 12.23 24.8905 12.262 24.6196 12.3151C24.3227 12.3726 24.0408 12.411 23.7739 12.4304C23.5083 12.4461 23.2617 12.4326 23.0343 12.39C22.8056 12.345 22.6026 12.2627 22.4254 12.1429C22.2469 12.0208 22.0988 11.8493 21.9811 11.6286C21.8648 11.4103 21.8043 11.1874 21.7996 10.96C21.7973 10.7313 21.8462 10.5068 21.9461 10.2866C22.0472 10.0626 22.1953 9.85296 22.3904 9.65762C22.5842 9.45984 22.8221 9.28577 23.1042 9.13541C23.5016 8.92361 23.8829 8.81481 24.2483 8.80901C24.6162 8.8019 24.9434 8.88103 25.23 9.04639C25.519 9.21044 25.7433 9.44209 25.9028 9.74132L24.9867 10.2296C24.8926 10.053 24.7715 9.91756 24.6236 9.82319C24.4768 9.72505 24.3064 9.67727 24.1125 9.67985C23.9211 9.68111 23.7101 9.74319 23.4795 9.86609C23.2612 9.98245 23.0974 10.1123 22.9879 10.2557C22.8785 10.399 22.8183 10.5461 22.8073 10.6968C22.7964 10.8476 22.8288 10.9941 22.9046 11.1363C22.9582 11.2369 23.0305 11.3164 23.1216 11.375C23.2113 11.4311 23.323 11.4692 23.4566 11.4894C23.5888 11.507 23.7437 11.508 23.9211 11.4922C24.0985 11.4763 24.3003 11.4443 24.5266 11.3962C24.8704 11.3263 25.1815 11.2864 25.4598 11.2767C25.7368 11.2645 25.9848 11.2866 26.2038 11.3431C26.4229 11.3995 26.615 11.494 26.7801 11.6265C26.9439 11.7565 27.0833 11.9294 27.1984 12.1453C27.3187 12.3709 27.3818 12.5987 27.3878 12.8286C27.3925 13.056 27.3442 13.2786 27.2429 13.4963C27.1428 13.7103 26.9934 13.9144 26.7945 14.1086C26.5968 14.299 26.3544 14.4707 26.0675 14.6237C25.8099 14.761 25.5378 14.862 25.251 14.9266C24.9666 14.99 24.6854 15.0061 24.4073 14.9748C24.1279 14.941 23.8719 14.8507 23.6393 14.7038C23.4053 14.5545 23.2126 14.3376 23.0609 14.0531L23.9844 13.5608C24.0772 13.735 24.1857 13.8677 24.3099 13.9589C24.4366 14.0489 24.5749 14.1043 24.7246 14.1253C24.8731 14.1438 25.0282 14.1335 25.1901 14.0945C25.3544 14.0542 25.5188 13.9902 25.6831 13.9026C25.8989 13.7875 26.0629 13.6608 26.1749 13.5223C26.2894 13.3826 26.354 13.2379 26.3687 13.0883C26.3835 12.9387 26.3523 12.7915 26.2752 12.6468Z" fill="#2e054e"/>
<path d="M33.5823 11.5884L33.6818 12.4121L30.4823 12.7987L30.3828 11.975L33.5823 11.5884ZM30.048 6.73672L30.7762 12.7632L29.7373 12.8887L29.0091 6.86224L30.048 6.73672ZM32.8397 8.9527L32.9377 9.76396L30.1562 10.1L30.0582 9.28878L32.8397 8.9527ZM32.9329 6.38814L33.033 7.21595L29.8542 7.60004L29.7541 6.77222L32.9329 6.38814Z" fill="#2e054e"/>
<path d="M39.8358 12.3832L39.7295 13.2061L36.7069 12.8154L36.8133 11.9926L39.8358 12.3832ZM37.7745 6.83257L36.9964 12.8528L35.9585 12.7187L36.7367 6.69843L37.7745 6.83257Z" fill="#2e054e"/>
<path d="M46.1962 14.7191L45.8386 15.4678L43.0885 14.1542L43.4461 13.4056L46.1962 14.7191ZM45.9682 8.80246L43.3519 14.28L42.4076 13.829L45.0239 8.35144L45.9682 8.80246Z" fill="#2e054e"/>
<path d="M18.0714 51.8773L12.7654 53.5563L12.112 52.6758L18.3482 50.8931L18.7656 51.4556L18.0714 51.8773ZM14.7505 56.2314L17.8925 51.6363L18.4948 51.0907L18.9147 51.6565L15.4063 57.1153L14.7505 56.2314ZM16.5062 54.8195L15.84 55.3139L13.8723 52.6622L14.5385 52.1678L16.5062 54.8195Z" fill="#2e054e"/>
<path d="M24.1151 55.8373L20.4447 60.6723L19.6112 60.0395L20.0721 54.9299L17.4428 58.3934L16.6093 57.7606L20.2797 52.9257L21.1132 53.5584L20.6539 58.6798L23.2883 55.2096L24.1151 55.8373Z" fill="#2e054e"/>
<path d="M25.9941 56.7554L26.4831 59.9401L28.6863 57.589L29.7935 57.9319L26.7075 60.9916L26.0464 63.1263L25.0388 62.8143L25.6999 60.6796L24.8829 56.4113L25.9941 56.7554Z" fill="#2e054e"/>
<path d="M31.8724 62.5856L33.4634 57.9937L34.095 58.0457L33.9249 59.249L32.2384 63.9837L31.5819 63.9297L31.8724 62.5856ZM31.3568 57.8203L31.9502 62.5544L31.9226 63.9577L31.2245 63.9003L30.3222 57.7352L31.3568 57.8203ZM35.0801 62.7995L36.426 58.2375L37.4648 58.323L35.5666 64.2576L34.8686 64.2002L35.0801 62.7995ZM34.3402 58.0658L35.1456 62.8676L35.2093 64.2282L34.5528 64.1742L33.6839 59.2292L33.7169 58.0146L34.3402 58.0658Z" fill="#2e054e"/>
<path d="M42.6103 59.1133L42.9044 59.889L39.891 61.0317L39.5969 60.2559L42.6103 59.1133ZM38.9398 57.7941L41.0921 63.47L40.1136 63.8411L37.9613 58.1651L38.9398 57.7941ZM42.4639 56.4578L44.6162 62.1337L43.6416 62.5033L41.4893 56.8273L42.4639 56.4578Z" fill="#2e054e"/>
<path d="M49.5888 59.6404L49.9257 60.3986L46.9805 61.7072L46.6436 60.949L49.5888 59.6404ZM44.7862 56.0396L47.251 61.587L46.2947 62.0119L43.8299 56.4646L44.7862 56.0396ZM48.1053 57.3387L48.4371 58.0854L45.8768 59.2231L45.5449 58.4763L48.1053 57.3387ZM47.4417 54.8597L47.7803 55.6217L44.8542 56.9218L44.5157 56.1598L47.4417 54.8597Z" fill="#2e054e"/>
<path d="M48.0855 54.632L49.6093 53.1193C49.9367 52.7943 50.2648 52.5665 50.5935 52.436C50.9222 52.3056 51.2436 52.2763 51.5578 52.3482C51.872 52.4161 52.1691 52.5912 52.4492 52.8732C52.6626 53.0882 52.8111 53.3168 52.8948 53.5588C52.9784 53.8009 53.004 54.0496 52.9716 54.305C52.9373 54.5584 52.8509 54.8145 52.7123 55.0735L52.5962 55.4062L51.2262 56.7661L50.6358 56.1832L51.6625 55.164C51.84 54.9877 51.9566 54.8093 52.0123 54.6287C52.068 54.4481 52.0716 54.2741 52.0231 54.1069C51.9746 53.9357 51.8818 53.7811 51.7447 53.6431C51.5959 53.4931 51.4371 53.3923 51.2682 53.3406C51.0994 53.285 50.9255 53.2873 50.7464 53.3475C50.5654 53.4058 50.3821 53.527 50.1967 53.7111L49.4156 54.4865L53.1048 58.2028L52.3621 58.94L48.0855 54.632ZM54.8209 56.4992L51.888 55.5687L52.6633 54.7932L55.5757 55.6735L55.6139 55.712L54.8209 56.4992Z" fill="#2e054e"/>
<path d="M58.9341 51.3414L59.5997 51.8367L57.6757 54.4221L57.0101 53.9268L58.9341 51.3414ZM52.9826 50.5607L57.8524 54.1847L57.2277 55.0242L52.3578 51.4002L52.9826 50.5607ZM56.512 50.0638L57.1676 50.5517L55.495 52.7993L54.8394 52.3115L56.512 50.0638ZM54.7174 48.2294L55.3864 48.7272L53.4748 51.2959L52.8059 50.7981L54.7174 48.2294Z" fill="#2e054e"/>
</svg>
