<svg xmlns="http://www.w3.org/2000/svg" width="126" height="118" fill="none"><g clip-path="url(#a)"><path stroke="#CDB2FB" stroke-width="2" d="m61.669 34.72-21.5 8.462A5 5 0 0 0 37 47.835v12.447a30 30 0 0 0 9.567 21.966l3.992 3.713c7.293 6.785 18.589 6.785 25.882 0l3.992-3.713A30 30 0 0 0 90 60.282V47.835a5 5 0 0 0-3.169-4.653l-21.5-8.461a5 5 0 0 0-3.662 0Z"/><path stroke="#CDB2FB" stroke-opacity=".4" stroke-width="2" d="m61.672 22.718-31.5 12.377A5 5 0 0 0 27 39.748V61.3A40 40 0 0 0 41.772 92.34l4.699 3.82c9.92 8.063 24.137 8.063 34.058 0l4.7-3.82A40 40 0 0 0 100 61.3V39.747a5 5 0 0 0-3.172-4.653l-31.5-12.377a5 5 0 0 0-3.656 0Z"/><path stroke="#CDB2FB" stroke-opacity=".2" stroke-width="2" d="m61.679 9.712-42.5 16.623A5 5 0 0 0 16 30.99v31.148a47 47 0 0 0 17.438 36.539l8.677 7.02c12.471 10.09 30.299 10.09 42.77 0l8.677-7.02A46.999 46.999 0 0 0 111 62.139V30.991a5 5 0 0 0-3.179-4.657l-42.5-16.622a5 5 0 0 0-3.642 0Z"/><path fill="#7D02CC" fill-rule="evenodd" d="M62.135 43.37a1.617 1.617 0 0 1 1.702-.018l.622.377.012.007a49.707 49.707 0 0 0 6.666 3.446l.017.008a48.638 48.638 0 0 0 7.243 2.519l.84.208a1.593 1.593 0 0 1 1.215 1.543v9.245c0 8.038-4.16 13.557-8.234 17.006a30.591 30.591 0 0 1-5.605 3.749 26 26 0 0 1-1.892.893 14.57 14.57 0 0 1-.773.298 2.866 2.866 0 0 1-.095.03l-.325.112a1.618 1.618 0 0 1-1.056 0l-.385-.133a19.361 19.361 0 0 1-.817-.329 30.97 30.97 0 0 1-7.482-4.644c-4.075-3.443-8.24-8.948-8.24-16.982V51.46c0-.73.501-1.366 1.215-1.543l.841-.209a48.65 48.65 0 0 0 7.255-2.508l.015-.007a49.709 49.709 0 0 0 6.658-3.441l.603-.383Zm.88 3.214a52.924 52.924 0 0 1-6.868 3.53 51.867 51.867 0 0 1-7.39 2.582v8.01c0 6.809 3.494 11.502 7.113 14.56 3.18 2.687 6.377 4.038 7.143 4.34l.011-.005c.096-.035.246-.094.445-.177.395-.166.966-.424 1.654-.782a27.386 27.386 0 0 0 5.01-3.35c3.618-3.063 7.11-7.77 7.11-14.587v-8.01a51.866 51.866 0 0 1-7.38-2.593 52.943 52.943 0 0 1-6.848-3.518Z" clip-rule="evenodd"/><path fill="#7D02CC" fill-rule="evenodd" d="M57.919 56.812c0-.976.791-1.767 1.767-1.767h3.535c1.22 0 2.209.989 2.209 2.209V68.74a1.767 1.767 0 0 1-3.535 0V58.579h-2.209a1.767 1.767 0 0 1-1.767-1.767Z" clip-rule="evenodd"/></g><defs><clipPath id="a"><path fill="#fff" d="M0 12C0 5.373 5.373 0 12 0h102c6.627 0 12 5.373 12 12v106H0V12Z"/></clipPath></defs></svg>